<svg width="160" height="160" viewBox="0 0 160 160" fill="none" xmlns="http://www.w3.org/2000/svg">
<g id="linktree-hero">
<path id="Fill 1" fill-rule="evenodd" clip-rule="evenodd" d="M159.93 79.9644C159.93 124.128 124.128 159.93 79.9644 159.93C35.8016 159.93 0 124.128 0 79.9644C0 35.8016 35.8016 0 79.9644 0C124.128 0 159.93 35.8016 159.93 79.9644Z" fill="#43E660"/>
<path id="Vector" d="M43.1393 65.4207H65.3357L49.5319 50.4207L58.2387 41.5184L73.2685 56.9395V35H86.3325V56.9395L101.362 41.5184L110.077 50.4207L94.273 65.4207H116.469V77.8268H94.1337L110.007 93.2479L101.293 101.939L79.7308 80.2802L58.1691 101.939L49.4623 93.2479L65.3357 77.8268H43V65.4207H43.1393ZM73.3381 95.5609H86.4021V125H73.3381V95.5609Z" fill="black"/>
</g>
</svg>
